<svg version="1.2" baseProfile="tiny-ps" xmlns="http://www.w3.org/2000/svg" viewBox="0 0 25 15" width="25" height="15">
	<title>Популярные товары</title>
	<style>
		tspan { white-space:pre }
		.shp0 { fill: #a6a6a6 } 
	</style>
	<g id="Популярные товары">
		<g id="Сортировать ">
			<g id="Списком">
				<g id="Списком">
					<path id="Фигура 56 копия 4" class="shp0" d="M8.19 0.86L24.72 0.86L24.72 3.34L8.19 3.34L8.19 0.86Z" />
					<path id="Фигура 56 копия 16" class="shp0" d="M8.19 5.82L24.72 5.82L24.72 8.3L8.19 8.3L8.19 5.82Z" />
					<path id="Фигура 56 копия 16" class="shp0" d="M8.19 11.6L24.72 11.6L24.72 14.08L8.19 14.08L8.19 11.6Z" />
					<path id="Фигура 56 копия 16" class="shp0" d="M0.75 0.86L4.89 0.86L4.89 3.34L0.75 3.34L0.75 0.86Z" />
					<path id="Фигура 56 копия 16" class="shp0" d="M0.75 5.82L4.89 5.82L4.89 8.3L0.75 8.3L0.75 5.82Z" />
					<path id="Фигура 56 копия 16" class="shp0" d="M0.75 11.6L4.89 11.6L4.89 14.08L0.75 14.08L0.75 11.6Z" />
				</g>
			</g>
		</g>
	</g>
</svg>