<?xml version="1.0" encoding="utf-8"?><svg viewBox="0 0 96 96" xmlns="http://www.w3.org/2000/svg" xmlns:xlink="http://www.w3.org/1999/xlink"><style>:root>svg{display:none}:root>svg:target{display:block}</style><svg fill="none" viewBox="0 0 96 96" id="cart" xmlns="http://www.w3.org/2000/svg"><path fill-rule="evenodd" clip-rule="evenodd" d="M42.415 44.19a6.134 6.134 0 1010.624 6.134l23.522-40.74a6.134 6.134 0 10-10.624-6.135L42.415 44.19zM39 42.34c-2.761 4.783-1.123 10.899 3.66 13.66 4.783 2.761 10.9 1.123 13.66-3.66L68.065 32H86c5.523 0 10 4.477 10 10 0 5.216-3.993 9.499-9.089 9.959L81.2 85.514A12 12 0 0169.37 95.5H26.63a12 12 0 01-11.83-9.986L9.09 51.959C3.993 51.499 0 47.216 0 42c0-5.523 4.477-10 10-10h34.97L39 42.34zM27 88a5 5 0 01-5-5V69a5 5 0 0110 0v14a5 5 0 01-5 5zm37-5a5 5 0 0010 0V69a5 5 0 00-10 0v14zm-16 5a5 5 0 01-5-5V69a5 5 0 0110 0v14a5 5 0 01-5 5z" fill="#fff"/></svg><svg version="1.2" baseProfile="tiny-ps" viewBox="0 0 19 15" id="quantity-btn" xmlns="http://www.w3.org/2000/svg"><style>.bshp0{fill:#fff;stroke:#e6e6e6;paint-order:stroke fill markers;stroke-width:6}</style><g id="bКарточка товара"><g id="bБоковая панель"><g id="bкол-во"><g id="bСтрелки"><path id="bлевая" class="bshp0" d="M15.79 9.79H9.87v2.71L2.94 7.26l6.93-5.23v2.71h5.92v5.05z"/></g></g></g></g></svg></svg>