<svg version="1.2" baseProfile="tiny-ps" xmlns="http://www.w3.org/2000/svg" viewBox="0 0 16 16" width="16" height="16">
	<title>Корзина</title>
	<style>
		tspan { white-space:pre }
		.shp0 { fill: #dedede } 
	</style>
	<g id="Корзина">
		<g id="2">
			<path id="error при наведении" class="shp0" d="M10.81 7.95L15.68 12.82C16 13.13 16 13.65 15.68 13.96L13.96 15.68C13.65 16 13.13 16 12.82 15.68L7.95 10.81L3.08 15.68C2.76 16 2.25 16 1.93 15.68L0.22 13.96C-0.1 13.65 -0.1 13.13 0.22 12.82L5.08 7.95L0.22 3.08C-0.1 2.76 -0.1 2.25 0.22 1.93L1.93 0.22C2.25 -0.1 2.76 -0.1 3.08 0.22L7.95 5.08L12.82 0.22C13.13 -0.1 13.65 -0.1 13.96 0.22L15.68 1.93C16 2.25 16 2.76 15.68 3.08L10.81 7.95Z" />
		</g>
	</g>
</svg>